<svg id="Capa_1" enable-background="new 0 0 512 512" height="512" viewBox="0 0 512 512" width="512" xmlns="http://www.w3.org/2000/svg"><path d="m209 77.745c0-27.57 22.43-50 50-50h17.304l-5.22-14.51c-2.935-8.16-10.625-13.235-18.821-13.235-2.271 0-4.581.39-6.839 1.212l-174.853 63.641c-10.395 3.784-15.745 15.287-11.939 25.674l9.239 25.218h141.129z"/><path d="m259 57.745c-11.046 0-20 8.954-20 20v38h175v-38c0-11.046-8.954-20-20-20z"/><path d="m467 404.245h-70c-41.355 0-75-33.645-75-75s33.645-75 75-75h70v-68.5c0-22.091-17.909-40-40-40h-387c-22.091 0-40 17.909-40 40v286.255c0 22.091 17.909 40 40 40h387c22.091 0 40-17.909 40-40z"/><path d="m497 284.245h-100c-24.813 0-45 20.187-45 45s20.187 45 45 45h100c8.271 0 15-6.729 15-15v-60c0-8.271-6.729-15-15-15zm-100 60c-8.284 0-15-6.716-15-15s6.716-15 15-15 15 6.716 15 15-6.716 15-15 15z"/></svg>