<svg width="162" height="164" viewBox="0 0 162 164" fill="none" xmlns="http://www.w3.org/2000/svg">
<path d="M116.515 35.5219L124.9 27.1369L29.0154 27.1369L29.0154 124.016L37.5154 115.516L37.5154 35.5219L116.515 35.5219Z" fill="#222D44"/>
<path d="M125.607 27.844L127.315 26.1369L124.9 26.1369L29.0154 26.1369L28.0154 26.1369L28.0154 27.1369L28.0154 124.016L28.0154 126.43L29.7225 124.723L38.2225 116.223L38.5154 115.93L38.5154 115.516L38.5154 36.5219L116.515 36.5219L116.93 36.5219L117.222 36.229L125.607 27.844Z" stroke="black" stroke-opacity="0.8" stroke-width="2"/>
<path d="M32.4237 132.608L6.01563 159.016L6.01562 5.98425L157.016 5.98425L133.993 29.0067L32.4237 29.0067L32.4237 132.608Z" fill="#212C44"/>
<path d="M5.01563 159.016V161.43L6.72273 159.723L33.1308 133.315L33.4237 133.022V132.608L33.4237 30.0067L133.993 30.0067H134.407L134.7 29.7138L157.723 6.69136L159.43 4.98425L157.016 4.98425L6.01562 4.98425H5.01562V5.98425L5.01563 159.016Z" stroke="black" stroke-opacity="0.8" stroke-width="2"/>
<g filter="url(#filter0_d_80_1366)">
<path d="M18.0156 110.016L6.01563 122.178L6.01563 135.016L18.0156 122.853V110.016Z" fill="#2EFFBF"/>
</g>
<g filter="url(#filter1_d_80_1366)">
<path d="M107.585 18.204L119.773 6.01562L132.639 6.01562L120.45 18.204L107.585 18.204Z" fill="#2EFFBF"/>
</g>
<g filter="url(#filter2_d_80_1366)">
<path d="M18.0156 92.0155L6.01563 103.691L6.01563 116.016L18.0156 104.34V92.0155Z" fill="#2EFFBF"/>
</g>
<g filter="url(#filter3_d_80_1366)">
<path d="M88.625 18.204L100.813 6.01562L113.679 6.01562L101.49 18.204L88.625 18.204Z" fill="#2EFFBF"/>
</g>
<g filter="url(#filter4_d_80_1366)">
<path d="M18.0156 73.0155L6.01563 85.1777L6.01563 98.0155L18.0156 85.8533V73.0155Z" fill="#2EFFBF"/>
</g>
<g filter="url(#filter5_d_80_1366)">
<path d="M69.666 18.204L81.8544 6.01562L94.7198 6.01562L82.5315 18.204L69.666 18.204Z" fill="#2EFFBF"/>
</g>
<g filter="url(#filter6_d_80_1366)">
<path fill-rule="evenodd" clip-rule="evenodd" d="M59.0156 17.0155C59.0156 18.1201 58.1202 19.0155 57.0156 19.0155C56.0837 19.0155 55.3007 18.3781 55.0786 17.5155L23.0164 17.5155L23.0093 17.5156C23.0027 17.5157 22.9915 17.5159 22.9761 17.5164C22.9454 17.5175 22.898 17.5196 22.8364 17.524C22.713 17.5328 22.5334 17.5507 22.3166 17.5868C21.8806 17.6595 21.3069 17.8039 20.7392 18.0877C20.1735 18.3706 19.6231 18.787 19.2129 19.4022C18.8048 20.0144 18.5156 20.853 18.5156 22.0155L18.5156 56.0785C19.3782 56.3005 20.0156 57.0836 20.0156 58.0155C20.0156 59.1201 19.1202 60.0155 18.0156 60.0155C16.9111 60.0155 16.0156 59.1201 16.0156 58.0155C16.0156 57.0836 16.653 56.3005 17.5156 56.0785L17.5156 22.0155C17.5156 20.678 17.8514 19.6417 18.3808 18.8475C18.9082 18.0565 19.6077 17.5354 20.292 17.1933C20.9744 16.8521 21.6507 16.684 22.1522 16.6004C22.4041 16.5584 22.6151 16.5373 22.7652 16.5265C22.8402 16.5212 22.9003 16.5184 22.9428 16.517C22.9641 16.5163 22.981 16.5159 22.9932 16.5157L23.008 16.5155L23.0127 16.5155L23.0144 16.5155C23.0147 16.5155 23.0156 16.5155 23.0156 17.0155V16.5155L55.0786 16.5155C55.3007 15.6529 56.0837 15.0155 57.0156 15.0155C58.1202 15.0155 59.0156 15.9109 59.0156 17.0155Z" fill="#2EFFBF"/>
</g>
<defs>
<filter id="filter0_d_80_1366" x="0.598585" y="104.598" width="22.8341" height="35.8341" filterUnits="userSpaceOnUse" color-interpolation-filters="sRGB">
<feFlood flood-opacity="0" result="BackgroundImageFix"/>
<feColorMatrix in="SourceAlpha" type="matrix" values="0 0 0 0 0 0 0 0 0 0 0 0 0 0 0 0 0 0 127 0" result="hardAlpha"/>
<feOffset/>
<feGaussianBlur stdDeviation="2.70852"/>
<feComposite in2="hardAlpha" operator="out"/>
<feColorMatrix type="matrix" values="0 0 0 0 0.180392 0 0 0 0 1 0 0 0 0 0.74902 0 0 0 1 0"/>
<feBlend mode="normal" in2="BackgroundImageFix" result="effect1_dropShadow_80_1366"/>
<feBlend mode="normal" in="SourceGraphic" in2="effect1_dropShadow_80_1366" result="shape"/>
</filter>
<filter id="filter1_d_80_1366" x="102.168" y="0.598585" width="35.8878" height="23.0224" filterUnits="userSpaceOnUse" color-interpolation-filters="sRGB">
<feFlood flood-opacity="0" result="BackgroundImageFix"/>
<feColorMatrix in="SourceAlpha" type="matrix" values="0 0 0 0 0 0 0 0 0 0 0 0 0 0 0 0 0 0 127 0" result="hardAlpha"/>
<feOffset/>
<feGaussianBlur stdDeviation="2.70852"/>
<feComposite in2="hardAlpha" operator="out"/>
<feColorMatrix type="matrix" values="0 0 0 0 0.180392 0 0 0 0 1 0 0 0 0 0.74902 0 0 0 1 0"/>
<feBlend mode="normal" in2="BackgroundImageFix" result="effect1_dropShadow_80_1366"/>
<feBlend mode="normal" in="SourceGraphic" in2="effect1_dropShadow_80_1366" result="shape"/>
</filter>
<filter id="filter2_d_80_1366" x="0.598585" y="86.5985" width="22.8341" height="34.8341" filterUnits="userSpaceOnUse" color-interpolation-filters="sRGB">
<feFlood flood-opacity="0" result="BackgroundImageFix"/>
<feColorMatrix in="SourceAlpha" type="matrix" values="0 0 0 0 0 0 0 0 0 0 0 0 0 0 0 0 0 0 127 0" result="hardAlpha"/>
<feOffset/>
<feGaussianBlur stdDeviation="2.70852"/>
<feComposite in2="hardAlpha" operator="out"/>
<feColorMatrix type="matrix" values="0 0 0 0 0.180392 0 0 0 0 1 0 0 0 0 0.74902 0 0 0 1 0"/>
<feBlend mode="normal" in2="BackgroundImageFix" result="effect1_dropShadow_80_1366"/>
<feBlend mode="normal" in="SourceGraphic" in2="effect1_dropShadow_80_1366" result="shape"/>
</filter>
<filter id="filter3_d_80_1366" x="83.208" y="0.598585" width="35.8878" height="23.0224" filterUnits="userSpaceOnUse" color-interpolation-filters="sRGB">
<feFlood flood-opacity="0" result="BackgroundImageFix"/>
<feColorMatrix in="SourceAlpha" type="matrix" values="0 0 0 0 0 0 0 0 0 0 0 0 0 0 0 0 0 0 127 0" result="hardAlpha"/>
<feOffset/>
<feGaussianBlur stdDeviation="2.70852"/>
<feComposite in2="hardAlpha" operator="out"/>
<feColorMatrix type="matrix" values="0 0 0 0 0.180392 0 0 0 0 1 0 0 0 0 0.74902 0 0 0 1 0"/>
<feBlend mode="normal" in2="BackgroundImageFix" result="effect1_dropShadow_80_1366"/>
<feBlend mode="normal" in="SourceGraphic" in2="effect1_dropShadow_80_1366" result="shape"/>
</filter>
<filter id="filter4_d_80_1366" x="0.598585" y="67.5985" width="22.8341" height="35.8341" filterUnits="userSpaceOnUse" color-interpolation-filters="sRGB">
<feFlood flood-opacity="0" result="BackgroundImageFix"/>
<feColorMatrix in="SourceAlpha" type="matrix" values="0 0 0 0 0 0 0 0 0 0 0 0 0 0 0 0 0 0 127 0" result="hardAlpha"/>
<feOffset/>
<feGaussianBlur stdDeviation="2.70852"/>
<feComposite in2="hardAlpha" operator="out"/>
<feColorMatrix type="matrix" values="0 0 0 0 0.180392 0 0 0 0 1 0 0 0 0 0.74902 0 0 0 1 0"/>
<feBlend mode="normal" in2="BackgroundImageFix" result="effect1_dropShadow_80_1366"/>
<feBlend mode="normal" in="SourceGraphic" in2="effect1_dropShadow_80_1366" result="shape"/>
</filter>
<filter id="filter5_d_80_1366" x="64.249" y="0.598585" width="35.8878" height="23.0224" filterUnits="userSpaceOnUse" color-interpolation-filters="sRGB">
<feFlood flood-opacity="0" result="BackgroundImageFix"/>
<feColorMatrix in="SourceAlpha" type="matrix" values="0 0 0 0 0 0 0 0 0 0 0 0 0 0 0 0 0 0 127 0" result="hardAlpha"/>
<feOffset/>
<feGaussianBlur stdDeviation="2.70852"/>
<feComposite in2="hardAlpha" operator="out"/>
<feColorMatrix type="matrix" values="0 0 0 0 0.180392 0 0 0 0 1 0 0 0 0 0.74902 0 0 0 1 0"/>
<feBlend mode="normal" in2="BackgroundImageFix" result="effect1_dropShadow_80_1366"/>
<feBlend mode="normal" in="SourceGraphic" in2="effect1_dropShadow_80_1366" result="shape"/>
</filter>
<filter id="filter6_d_80_1366" x="10.5986" y="9.59846" width="53.8341" height="55.8341" filterUnits="userSpaceOnUse" color-interpolation-filters="sRGB">
<feFlood flood-opacity="0" result="BackgroundImageFix"/>
<feColorMatrix in="SourceAlpha" type="matrix" values="0 0 0 0 0 0 0 0 0 0 0 0 0 0 0 0 0 0 127 0" result="hardAlpha"/>
<feOffset/>
<feGaussianBlur stdDeviation="2.70852"/>
<feComposite in2="hardAlpha" operator="out"/>
<feColorMatrix type="matrix" values="0 0 0 0 0.180392 0 0 0 0 1 0 0 0 0 0.74902 0 0 0 1 0"/>
<feBlend mode="normal" in2="BackgroundImageFix" result="effect1_dropShadow_80_1366"/>
<feBlend mode="normal" in="SourceGraphic" in2="effect1_dropShadow_80_1366" result="shape"/>
</filter>
</defs>
</svg>
