<svg width="162" height="164" viewBox="0 0 162 164" fill="none" xmlns="http://www.w3.org/2000/svg">
<path d="M45.5315 128.494L37.1465 136.879H133.031V40.0002L124.531 48.5002V128.494H45.5315Z" fill="#222D44"/>
<path d="M36.4394 136.172L34.7323 137.879H37.1465H133.031H134.031V136.879V40.0002V37.586L132.324 39.2931L123.824 47.7931L123.531 48.086V48.5002V127.494H45.5315H45.1173L44.8244 127.787L36.4394 136.172Z" stroke="black" stroke-opacity="0.8" stroke-width="2"/>
<path d="M129.623 31.4082L156.031 5.00011L156.031 158.031L5.03125 158.031L28.0537 135.009L129.623 135.009L129.623 31.4082Z" fill="#212C44"/>
<path d="M157.031 5.00011L157.031 2.58589L155.324 4.293L128.916 30.7011L128.623 30.994L128.623 31.4082L128.623 134.009L28.0537 134.009L27.6395 134.009L27.3466 134.302L4.32414 157.324L2.61703 159.031L5.03125 159.031L156.031 159.031L157.031 159.031L157.031 158.031L157.031 5.00011Z" stroke="black" stroke-opacity="0.8" stroke-width="2"/>
<g filter="url(#filter0_d_80_1424)">
<path d="M144.031 54.0002L156.031 41.8381L156.031 29.0002L144.031 41.1624L144.031 54.0002Z" fill="#2EFFBF"/>
</g>
<g filter="url(#filter1_d_80_1424)">
<path d="M54.4619 145.812L42.2736 158L29.4081 158L41.5964 145.812L54.4619 145.812Z" fill="#2EFFBF"/>
</g>
<g filter="url(#filter2_d_80_1424)">
<path d="M144.031 72.0002L156.031 60.3246L156.031 48.0002L144.031 59.6759L144.031 72.0002Z" fill="#2EFFBF"/>
</g>
<g filter="url(#filter3_d_80_1424)">
<path d="M73.4219 145.812L61.2335 158L48.3681 158L60.5564 145.812L73.4219 145.812Z" fill="#2EFFBF"/>
</g>
<g filter="url(#filter4_d_80_1424)">
<path d="M144.031 91.0002L156.031 78.8381L156.031 66.0002L144.031 78.1624L144.031 91.0002Z" fill="#2EFFBF"/>
</g>
<g filter="url(#filter5_d_80_1424)">
<path d="M92.3809 145.812L80.1925 158L67.327 158L79.5154 145.812L92.3809 145.812Z" fill="#2EFFBF"/>
</g>
<g filter="url(#filter6_d_80_1424)">
<path fill-rule="evenodd" clip-rule="evenodd" d="M103.031 147C103.031 145.896 103.927 145 105.031 145C105.963 145 106.746 145.638 106.968 146.5L139.03 146.5L139.038 146.5C139.044 146.5 139.055 146.5 139.071 146.499C139.101 146.498 139.149 146.496 139.21 146.492C139.334 146.483 139.513 146.465 139.73 146.429C140.166 146.356 140.74 146.212 141.308 145.928C141.873 145.645 142.424 145.229 142.834 144.614C143.242 144.001 143.531 143.163 143.531 142L143.531 107.937C142.669 107.715 142.031 106.932 142.031 106C142.031 104.896 142.927 104 144.031 104C145.136 104 146.031 104.896 146.031 106C146.031 106.932 145.394 107.715 144.531 107.937L144.531 142C144.531 143.338 144.195 144.374 143.666 145.168C143.139 145.959 142.439 146.48 141.755 146.822C141.072 147.164 140.396 147.332 139.895 147.415C139.643 147.457 139.432 147.478 139.282 147.489C139.207 147.495 139.147 147.497 139.104 147.499C139.083 147.499 139.066 147.5 139.054 147.5L139.039 147.5L139.034 147.5L139.032 147.5C139.032 147.5 139.031 147.5 139.031 147L139.031 147.5L106.968 147.5C106.746 148.363 105.963 149 105.031 149C103.927 149 103.031 148.105 103.031 147Z" fill="#2EFFBF"/>
</g>
<defs>
<filter id="filter0_d_80_1424" x="138.614" y="23.5832" width="22.8341" height="35.8341" filterUnits="userSpaceOnUse" color-interpolation-filters="sRGB">
<feFlood flood-opacity="0" result="BackgroundImageFix"/>
<feColorMatrix in="SourceAlpha" type="matrix" values="0 0 0 0 0 0 0 0 0 0 0 0 0 0 0 0 0 0 127 0" result="hardAlpha"/>
<feOffset/>
<feGaussianBlur stdDeviation="2.70852"/>
<feComposite in2="hardAlpha" operator="out"/>
<feColorMatrix type="matrix" values="0 0 0 0 0.180392 0 0 0 0 1 0 0 0 0 0.74902 0 0 0 1 0"/>
<feBlend mode="normal" in2="BackgroundImageFix" result="effect1_dropShadow_80_1424"/>
<feBlend mode="normal" in="SourceGraphic" in2="effect1_dropShadow_80_1424" result="shape"/>
</filter>
<filter id="filter1_d_80_1424" x="23.9912" y="140.395" width="35.8878" height="23.0223" filterUnits="userSpaceOnUse" color-interpolation-filters="sRGB">
<feFlood flood-opacity="0" result="BackgroundImageFix"/>
<feColorMatrix in="SourceAlpha" type="matrix" values="0 0 0 0 0 0 0 0 0 0 0 0 0 0 0 0 0 0 127 0" result="hardAlpha"/>
<feOffset/>
<feGaussianBlur stdDeviation="2.70852"/>
<feComposite in2="hardAlpha" operator="out"/>
<feColorMatrix type="matrix" values="0 0 0 0 0.180392 0 0 0 0 1 0 0 0 0 0.74902 0 0 0 1 0"/>
<feBlend mode="normal" in2="BackgroundImageFix" result="effect1_dropShadow_80_1424"/>
<feBlend mode="normal" in="SourceGraphic" in2="effect1_dropShadow_80_1424" result="shape"/>
</filter>
<filter id="filter2_d_80_1424" x="138.614" y="42.5832" width="22.8341" height="34.8341" filterUnits="userSpaceOnUse" color-interpolation-filters="sRGB">
<feFlood flood-opacity="0" result="BackgroundImageFix"/>
<feColorMatrix in="SourceAlpha" type="matrix" values="0 0 0 0 0 0 0 0 0 0 0 0 0 0 0 0 0 0 127 0" result="hardAlpha"/>
<feOffset/>
<feGaussianBlur stdDeviation="2.70852"/>
<feComposite in2="hardAlpha" operator="out"/>
<feColorMatrix type="matrix" values="0 0 0 0 0.180392 0 0 0 0 1 0 0 0 0 0.74902 0 0 0 1 0"/>
<feBlend mode="normal" in2="BackgroundImageFix" result="effect1_dropShadow_80_1424"/>
<feBlend mode="normal" in="SourceGraphic" in2="effect1_dropShadow_80_1424" result="shape"/>
</filter>
<filter id="filter3_d_80_1424" x="42.9511" y="140.395" width="35.8878" height="23.0223" filterUnits="userSpaceOnUse" color-interpolation-filters="sRGB">
<feFlood flood-opacity="0" result="BackgroundImageFix"/>
<feColorMatrix in="SourceAlpha" type="matrix" values="0 0 0 0 0 0 0 0 0 0 0 0 0 0 0 0 0 0 127 0" result="hardAlpha"/>
<feOffset/>
<feGaussianBlur stdDeviation="2.70852"/>
<feComposite in2="hardAlpha" operator="out"/>
<feColorMatrix type="matrix" values="0 0 0 0 0.180392 0 0 0 0 1 0 0 0 0 0.74902 0 0 0 1 0"/>
<feBlend mode="normal" in2="BackgroundImageFix" result="effect1_dropShadow_80_1424"/>
<feBlend mode="normal" in="SourceGraphic" in2="effect1_dropShadow_80_1424" result="shape"/>
</filter>
<filter id="filter4_d_80_1424" x="138.614" y="60.5832" width="22.8341" height="35.8341" filterUnits="userSpaceOnUse" color-interpolation-filters="sRGB">
<feFlood flood-opacity="0" result="BackgroundImageFix"/>
<feColorMatrix in="SourceAlpha" type="matrix" values="0 0 0 0 0 0 0 0 0 0 0 0 0 0 0 0 0 0 127 0" result="hardAlpha"/>
<feOffset/>
<feGaussianBlur stdDeviation="2.70852"/>
<feComposite in2="hardAlpha" operator="out"/>
<feColorMatrix type="matrix" values="0 0 0 0 0.180392 0 0 0 0 1 0 0 0 0 0.74902 0 0 0 1 0"/>
<feBlend mode="normal" in2="BackgroundImageFix" result="effect1_dropShadow_80_1424"/>
<feBlend mode="normal" in="SourceGraphic" in2="effect1_dropShadow_80_1424" result="shape"/>
</filter>
<filter id="filter5_d_80_1424" x="61.9101" y="140.395" width="35.8878" height="23.0223" filterUnits="userSpaceOnUse" color-interpolation-filters="sRGB">
<feFlood flood-opacity="0" result="BackgroundImageFix"/>
<feColorMatrix in="SourceAlpha" type="matrix" values="0 0 0 0 0 0 0 0 0 0 0 0 0 0 0 0 0 0 127 0" result="hardAlpha"/>
<feOffset/>
<feGaussianBlur stdDeviation="2.70852"/>
<feComposite in2="hardAlpha" operator="out"/>
<feColorMatrix type="matrix" values="0 0 0 0 0.180392 0 0 0 0 1 0 0 0 0 0.74902 0 0 0 1 0"/>
<feBlend mode="normal" in2="BackgroundImageFix" result="effect1_dropShadow_80_1424"/>
<feBlend mode="normal" in="SourceGraphic" in2="effect1_dropShadow_80_1424" result="shape"/>
</filter>
<filter id="filter6_d_80_1424" x="97.6142" y="98.5832" width="53.8341" height="55.8341" filterUnits="userSpaceOnUse" color-interpolation-filters="sRGB">
<feFlood flood-opacity="0" result="BackgroundImageFix"/>
<feColorMatrix in="SourceAlpha" type="matrix" values="0 0 0 0 0 0 0 0 0 0 0 0 0 0 0 0 0 0 127 0" result="hardAlpha"/>
<feOffset/>
<feGaussianBlur stdDeviation="2.70852"/>
<feComposite in2="hardAlpha" operator="out"/>
<feColorMatrix type="matrix" values="0 0 0 0 0.180392 0 0 0 0 1 0 0 0 0 0.74902 0 0 0 1 0"/>
<feBlend mode="normal" in2="BackgroundImageFix" result="effect1_dropShadow_80_1424"/>
<feBlend mode="normal" in="SourceGraphic" in2="effect1_dropShadow_80_1424" result="shape"/>
</filter>
</defs>
</svg>
