<svg width="164" height="162" viewBox="0 0 164 162" fill="none" xmlns="http://www.w3.org/2000/svg">
<path d="M128.494 116.5L136.879 124.885L136.879 29.0001L40 29.0001L48.4999 37.5L128.494 37.5L128.494 116.5Z" fill="#222D44"/>
<path d="M136.171 125.592L137.879 127.299L137.879 124.885L137.879 29.0001L137.879 28.0001L136.879 28.0001L40 28.0001L37.5858 28.0001L39.2929 29.7072L47.7928 38.2071L48.0857 38.5L48.4999 38.5L127.494 38.5L127.494 116.5L127.494 116.914L127.786 117.207L136.171 125.592Z" stroke="black" stroke-opacity="0.8" stroke-width="2"/>
<path d="M31.4079 32.4081L4.99986 5.99999L158.031 6L158.031 157L135.009 133.978L135.009 32.4081L31.4079 32.4081Z" fill="#212C44"/>
<path d="M4.99986 4.99999L2.58565 4.99999L4.29276 6.7071L30.7008 33.1152L30.9937 33.4081L31.4079 33.4081L134.009 33.4081L134.009 133.978L134.009 134.392L134.302 134.685L157.324 157.707L159.031 159.414L159.031 157L159.031 6L159.031 5L158.031 5L4.99986 4.99999Z" stroke="black" stroke-opacity="0.8" stroke-width="2"/>
<g filter="url(#filter0_d_78_1256)">
<path d="M54 18L41.8378 6L29 6L41.1622 18L54 18Z" fill="#2EFFBF"/>
</g>
<g filter="url(#filter1_d_78_1256)">
<path d="M145.812 107.569L158 119.758V132.623L145.812 120.435V107.569Z" fill="#2EFFBF"/>
</g>
<g filter="url(#filter2_d_78_1256)">
<path d="M72 18L60.3243 6L48 6L59.6757 18L72 18Z" fill="#2EFFBF"/>
</g>
<g filter="url(#filter3_d_78_1256)">
<path d="M145.812 88.6094L158 100.798V113.663L145.812 101.475V88.6094Z" fill="#2EFFBF"/>
</g>
<g filter="url(#filter4_d_78_1256)">
<path d="M91 18L78.8378 6L66 6L78.1622 18L91 18Z" fill="#2EFFBF"/>
</g>
<g filter="url(#filter5_d_78_1256)">
<path d="M145.812 69.6504L158 81.8387V94.7042L145.812 82.5159V69.6504Z" fill="#2EFFBF"/>
</g>
<g filter="url(#filter6_d_78_1256)">
<path fill-rule="evenodd" clip-rule="evenodd" d="M147 59C145.895 59 145 58.1046 145 57C145 56.0681 145.637 55.285 146.5 55.063L146.5 23.0008L146.5 22.9937C146.5 22.987 146.5 22.9759 146.499 22.9605C146.498 22.9298 146.496 22.8824 146.492 22.8208C146.483 22.6974 146.465 22.5178 146.429 22.3009C146.356 21.8649 146.212 21.2912 145.928 20.7236C145.645 20.1579 145.229 19.6074 144.613 19.1973C144.001 18.7892 143.163 18.5 142 18.5L107.937 18.5C107.715 19.3626 106.932 20 106 20C104.895 20 104 19.1046 104 18C104 16.8954 104.895 16 106 16C106.932 16 107.715 16.6374 107.937 17.5L142 17.5C143.337 17.5 144.374 17.8358 145.168 18.3652C145.959 18.8926 146.48 19.5921 146.822 20.2764C147.163 20.9588 147.331 21.6351 147.415 22.1366C147.457 22.3885 147.478 22.5995 147.489 22.7495C147.494 22.8246 147.497 22.8847 147.499 22.9272C147.499 22.9485 147.5 22.9654 147.5 22.9776L147.5 22.9924L147.5 22.9971L147.5 22.9988C147.5 22.9991 147.5 23 147 23L147.5 23L147.5 55.063C148.363 55.285 149 56.0681 149 57C149 58.1046 148.105 59 147 59Z" fill="#2EFFBF"/>
</g>
<defs>
<filter id="filter0_d_78_1256" x="23.583" y="0.58296" width="35.8341" height="22.8341" filterUnits="userSpaceOnUse" color-interpolation-filters="sRGB">
<feFlood flood-opacity="0" result="BackgroundImageFix"/>
<feColorMatrix in="SourceAlpha" type="matrix" values="0 0 0 0 0 0 0 0 0 0 0 0 0 0 0 0 0 0 127 0" result="hardAlpha"/>
<feOffset/>
<feGaussianBlur stdDeviation="2.70852"/>
<feComposite in2="hardAlpha" operator="out"/>
<feColorMatrix type="matrix" values="0 0 0 0 0.180392 0 0 0 0 1 0 0 0 0 0.74902 0 0 0 1 0"/>
<feBlend mode="normal" in2="BackgroundImageFix" result="effect1_dropShadow_78_1256"/>
<feBlend mode="normal" in="SourceGraphic" in2="effect1_dropShadow_78_1256" result="shape"/>
</filter>
<filter id="filter1_d_78_1256" x="140.394" y="102.152" width="23.0226" height="35.8879" filterUnits="userSpaceOnUse" color-interpolation-filters="sRGB">
<feFlood flood-opacity="0" result="BackgroundImageFix"/>
<feColorMatrix in="SourceAlpha" type="matrix" values="0 0 0 0 0 0 0 0 0 0 0 0 0 0 0 0 0 0 127 0" result="hardAlpha"/>
<feOffset/>
<feGaussianBlur stdDeviation="2.70852"/>
<feComposite in2="hardAlpha" operator="out"/>
<feColorMatrix type="matrix" values="0 0 0 0 0.180392 0 0 0 0 1 0 0 0 0 0.74902 0 0 0 1 0"/>
<feBlend mode="normal" in2="BackgroundImageFix" result="effect1_dropShadow_78_1256"/>
<feBlend mode="normal" in="SourceGraphic" in2="effect1_dropShadow_78_1256" result="shape"/>
</filter>
<filter id="filter2_d_78_1256" x="42.583" y="0.58296" width="34.8341" height="22.8341" filterUnits="userSpaceOnUse" color-interpolation-filters="sRGB">
<feFlood flood-opacity="0" result="BackgroundImageFix"/>
<feColorMatrix in="SourceAlpha" type="matrix" values="0 0 0 0 0 0 0 0 0 0 0 0 0 0 0 0 0 0 127 0" result="hardAlpha"/>
<feOffset/>
<feGaussianBlur stdDeviation="2.70852"/>
<feComposite in2="hardAlpha" operator="out"/>
<feColorMatrix type="matrix" values="0 0 0 0 0.180392 0 0 0 0 1 0 0 0 0 0.74902 0 0 0 1 0"/>
<feBlend mode="normal" in2="BackgroundImageFix" result="effect1_dropShadow_78_1256"/>
<feBlend mode="normal" in="SourceGraphic" in2="effect1_dropShadow_78_1256" result="shape"/>
</filter>
<filter id="filter3_d_78_1256" x="140.394" y="83.1923" width="23.0226" height="35.8879" filterUnits="userSpaceOnUse" color-interpolation-filters="sRGB">
<feFlood flood-opacity="0" result="BackgroundImageFix"/>
<feColorMatrix in="SourceAlpha" type="matrix" values="0 0 0 0 0 0 0 0 0 0 0 0 0 0 0 0 0 0 127 0" result="hardAlpha"/>
<feOffset/>
<feGaussianBlur stdDeviation="2.70852"/>
<feComposite in2="hardAlpha" operator="out"/>
<feColorMatrix type="matrix" values="0 0 0 0 0.180392 0 0 0 0 1 0 0 0 0 0.74902 0 0 0 1 0"/>
<feBlend mode="normal" in2="BackgroundImageFix" result="effect1_dropShadow_78_1256"/>
<feBlend mode="normal" in="SourceGraphic" in2="effect1_dropShadow_78_1256" result="shape"/>
</filter>
<filter id="filter4_d_78_1256" x="60.583" y="0.58296" width="35.8341" height="22.8341" filterUnits="userSpaceOnUse" color-interpolation-filters="sRGB">
<feFlood flood-opacity="0" result="BackgroundImageFix"/>
<feColorMatrix in="SourceAlpha" type="matrix" values="0 0 0 0 0 0 0 0 0 0 0 0 0 0 0 0 0 0 127 0" result="hardAlpha"/>
<feOffset/>
<feGaussianBlur stdDeviation="2.70852"/>
<feComposite in2="hardAlpha" operator="out"/>
<feColorMatrix type="matrix" values="0 0 0 0 0.180392 0 0 0 0 1 0 0 0 0 0.74902 0 0 0 1 0"/>
<feBlend mode="normal" in2="BackgroundImageFix" result="effect1_dropShadow_78_1256"/>
<feBlend mode="normal" in="SourceGraphic" in2="effect1_dropShadow_78_1256" result="shape"/>
</filter>
<filter id="filter5_d_78_1256" x="140.394" y="64.2334" width="23.0226" height="35.8879" filterUnits="userSpaceOnUse" color-interpolation-filters="sRGB">
<feFlood flood-opacity="0" result="BackgroundImageFix"/>
<feColorMatrix in="SourceAlpha" type="matrix" values="0 0 0 0 0 0 0 0 0 0 0 0 0 0 0 0 0 0 127 0" result="hardAlpha"/>
<feOffset/>
<feGaussianBlur stdDeviation="2.70852"/>
<feComposite in2="hardAlpha" operator="out"/>
<feColorMatrix type="matrix" values="0 0 0 0 0.180392 0 0 0 0 1 0 0 0 0 0.74902 0 0 0 1 0"/>
<feBlend mode="normal" in2="BackgroundImageFix" result="effect1_dropShadow_78_1256"/>
<feBlend mode="normal" in="SourceGraphic" in2="effect1_dropShadow_78_1256" result="shape"/>
</filter>
<filter id="filter6_d_78_1256" x="98.583" y="10.583" width="55.8341" height="53.8341" filterUnits="userSpaceOnUse" color-interpolation-filters="sRGB">
<feFlood flood-opacity="0" result="BackgroundImageFix"/>
<feColorMatrix in="SourceAlpha" type="matrix" values="0 0 0 0 0 0 0 0 0 0 0 0 0 0 0 0 0 0 127 0" result="hardAlpha"/>
<feOffset/>
<feGaussianBlur stdDeviation="2.70852"/>
<feComposite in2="hardAlpha" operator="out"/>
<feColorMatrix type="matrix" values="0 0 0 0 0.180392 0 0 0 0 1 0 0 0 0 0.74902 0 0 0 1 0"/>
<feBlend mode="normal" in2="BackgroundImageFix" result="effect1_dropShadow_78_1256"/>
<feBlend mode="normal" in="SourceGraphic" in2="effect1_dropShadow_78_1256" result="shape"/>
</filter>
</defs>
</svg>
