<?xml version="1.0" standalone="no"?>
<!DOCTYPE svg PUBLIC "-//W3C//DTD SVG 20010904//EN"
 "http://www.w3.org/TR/2001/REC-SVG-20010904/DTD/svg10.dtd">
<svg version="1.0" xmlns="http://www.w3.org/2000/svg"
 width="500.000000pt" height="500.000000pt" viewBox="0 0 500.000000 500.000000"
 preserveAspectRatio="xMidYMid meet">
<metadata>
Created by potrace 1.14, written by Peter Selinger 2001-2017
</metadata>
<g transform="translate(0.000000,500.000000) scale(0.100000,-0.100000)"
fill="#000000" stroke="none">
<path d="M2365 4790 c-236 -23 -457 -68 -670 -137 -150 -49 -233 -86 -305
-138 -25 -18 -76 -49 -115 -69 -98 -51 -174 -110 -293 -228 -153 -152 -267
-310 -323 -449 -25 -61 -68 -202 -73 -239 -2 -14 -9 -50 -15 -80 -27 -131 -26
-147 8 -179 30 -28 39 -63 23 -88 -4 -6 -26 -19 -49 -28 -47 -19 -140 -112
-166 -166 -14 -31 -37 -86 -40 -99 -42 -179 -22 -313 70 -453 56 -85 122 -131
215 -151 27 -6 28 -7 22 -69 -4 -35 -15 -77 -27 -96 -41 -68 -16 -301 49 -446
10 -22 18 -42 19 -45 14 -48 114 -196 177 -263 56 -59 127 -99 175 -96 15 1
62 -14 103 -33 41 -20 96 -45 122 -56 32 -14 52 -31 64 -54 9 -18 20 -35 23
-38 37 -30 66 -110 40 -110 -5 0 -9 -7 -9 -15 0 -11 -12 -15 -50 -15 -28 0
-64 -6 -79 -14 -31 -17 -117 -86 -105 -86 4 0 -1 -9 -11 -20 -13 -14 -18 -34
-17 -58 6 -106 15 -133 65 -185 19 -21 30 -37 26 -37 -5 0 -9 -6 -9 -12 0 -7
-13 -20 -29 -29 -28 -16 -31 -16 -87 12 -33 16 -67 29 -77 29 -10 0 -16 4 -13
8 3 5 -9 7 -27 4 -25 -3 -29 -1 -17 7 11 8 3 11 -33 11 -42 0 -53 -4 -79 -32
-141 -151 -238 -353 -238 -495 l0 -53 1616 0 1616 0 -7 38 c-3 22 -20 90 -36
153 -34 132 -30 117 -54 194 -10 33 -19 65 -21 70 -1 6 -3 15 -4 20 -7 31 0
35 32 19 21 -11 47 -15 80 -12 26 3 48 1 48 -4 0 -5 10 -12 21 -17 24 -8 129
-202 129 -239 0 -16 -13 -29 -51 -50 -28 -15 -62 -36 -76 -47 -23 -19 -24 -22
-9 -49 10 -20 12 -35 5 -47 -5 -10 -9 -20 -9 -23 0 -3 126 -6 279 -6 275 0
280 0 276 20 -3 15 9 29 53 56 77 48 85 60 65 91 -13 20 -14 28 -3 47 10 20 9
29 -6 55 -10 17 -26 31 -35 31 -9 0 -30 16 -46 34 l-28 35 -75 -24 c-41 -14
-79 -25 -83 -25 -5 0 -33 51 -62 114 -61 128 -67 171 -28 208 13 12 27 38 33
57 11 46 7 220 -7 246 -6 11 -11 56 -11 100 -1 119 -5 130 -56 181 -48 46 -48
47 -99 40 -29 -4 -58 -8 -64 -8 -7 -1 -13 -6 -13 -11 0 -5 -7 -6 -16 -3 -8 3
-12 2 -9 -4 3 -6 0 -10 -7 -11 -7 0 -20 -2 -28 -4 -21 -4 -167 -75 -155 -75 6
0 -5 -9 -23 -20 -18 -11 -35 -20 -37 -20 -11 0 -4 21 19 55 14 20 28 50 31 67
5 19 24 46 48 67 152 134 238 255 324 456 30 71 83 225 77 225 -3 0 0 8 5 18
6 11 12 30 15 43 3 13 12 49 20 79 16 60 18 66 41 190 9 47 31 119 50 160 58
127 77 244 61 376 -7 57 -5 66 35 155 23 52 46 100 52 107 5 6 7 12 4 12 -3 0
10 35 29 78 59 129 71 157 75 180 0 4 5 15 10 24 26 49 28 243 4 358 -19 92
-19 92 -28 108 -5 6 -5 12 -2 12 6 0 -9 19 -40 51 -17 18 -29 20 -87 16 -74
-5 -108 -22 -204 -104 -28 -23 -58 -43 -65 -43 -9 0 -41 52 -77 123 -188 371
-510 632 -965 782 -109 35 -163 47 -250 55 -62 5 -137 14 -168 19 -90 15 -257
20 -354 11z m-910 -4332 c2 -2 -7 -41 -21 -87 -13 -46 -24 -90 -24 -97 0 -27
-15 -13 -45 39 -33 58 -34 75 -3 125 19 31 24 34 56 28 19 -3 36 -6 37 -8z"/>
</g>
</svg>
