<svg width="164" height="162" viewBox="0 0 164 162" fill="none" xmlns="http://www.w3.org/2000/svg">
<path d="M35.5533 45.5156L27.1683 37.1306L27.1683 133.016L124.047 133.016L115.547 124.516L35.5533 124.516L35.5533 45.5156Z" fill="#222D44"/>
<path d="M27.8754 36.4235L26.1683 34.7164L26.1683 37.1306L26.1683 133.016L26.1683 134.016L27.1683 134.016L124.047 134.016L126.461 134.016L124.754 132.308L116.254 123.809L115.961 123.516L115.547 123.516L36.5533 123.516L36.5533 45.5156L36.5533 45.1014L36.2604 44.8085L27.8754 36.4235Z" stroke="black" stroke-opacity="0.8" stroke-width="2"/>
<path d="M132.639 129.608L159.047 156.016L6.01562 156.016L6.01564 5.01562L29.0381 28.0381L29.038 129.608L132.639 129.608Z" fill="#212C44"/>
<path d="M159.047 157.016L161.461 157.016L159.754 155.309L133.346 128.9L133.053 128.608L132.639 128.608L30.038 128.608L30.0381 28.0381L30.0381 27.6238L29.7452 27.331L6.72275 4.30852L5.01565 2.60141L5.01564 5.01562L5.01562 156.016L5.01562 157.016L6.01562 157.016L159.047 157.016Z" stroke="black" stroke-opacity="0.8" stroke-width="2"/>
<g filter="url(#filter0_d_80_1409)">
<path d="M110.047 144.016L122.209 156.016L135.047 156.016L122.885 144.016L110.047 144.016Z" fill="#2EFFBF"/>
</g>
<g filter="url(#filter1_d_80_1409)">
<path d="M18.2352 54.4463L6.04688 42.2579L6.04688 29.3925L18.2352 41.5808L18.2352 54.4463Z" fill="#2EFFBF"/>
</g>
<g filter="url(#filter2_d_80_1409)">
<path d="M92.0469 144.016L103.723 156.016L116.047 156.016L104.371 144.016L92.0469 144.016Z" fill="#2EFFBF"/>
</g>
<g filter="url(#filter3_d_80_1409)">
<path d="M18.2352 73.4063L6.04688 61.2179L6.04688 48.3524L18.2352 60.5408L18.2352 73.4063Z" fill="#2EFFBF"/>
</g>
<g filter="url(#filter4_d_80_1409)">
<path d="M73.0469 144.016L85.209 156.016L98.0469 156.016L85.8847 144.016L73.0469 144.016Z" fill="#2EFFBF"/>
</g>
<g filter="url(#filter5_d_80_1409)">
<path d="M18.2352 92.3652L6.04688 80.1769L6.04688 67.3114L18.2352 79.4998L18.2352 92.3652Z" fill="#2EFFBF"/>
</g>
<g filter="url(#filter6_d_80_1409)">
<path fill-rule="evenodd" clip-rule="evenodd" d="M17.0469 103.016C18.1515 103.016 19.0469 103.911 19.0469 105.016C19.0469 105.948 18.4095 106.731 17.5469 106.953L17.5469 139.015L17.547 139.022C17.5471 139.029 17.5473 139.04 17.5478 139.055C17.5488 139.086 17.551 139.133 17.5554 139.195C17.5642 139.318 17.5821 139.498 17.6182 139.715C17.6909 140.151 17.8353 140.724 18.1191 141.292C18.4019 141.858 18.8183 142.408 19.4336 142.818C20.0457 143.226 20.8844 143.516 22.0469 143.516L56.1099 143.516C56.3319 142.653 57.115 142.016 58.0469 142.016C59.1514 142.016 60.0469 142.911 60.0469 144.016C60.0469 145.12 59.1514 146.016 58.0469 146.016C57.115 146.016 56.3319 145.378 56.1099 144.516L22.0469 144.516C20.7094 144.516 19.673 144.18 18.8789 143.65C18.0879 143.123 17.5668 142.424 17.2247 141.739C16.8835 141.057 16.7154 140.381 16.6318 139.879C16.5898 139.627 16.5686 139.416 16.5579 139.266C16.5525 139.191 16.5498 139.131 16.5484 139.088C16.5477 139.067 16.5473 139.05 16.5471 139.038L16.5469 139.023L16.5469 139.019L16.5469 139.017C16.5469 139.017 16.5469 139.016 17.0469 139.016L16.5469 139.016L16.5469 106.953C15.6843 106.731 15.0469 105.948 15.0469 105.016C15.0469 103.911 15.9423 103.016 17.0469 103.016Z" fill="#2EFFBF"/>
</g>
<defs>
<filter id="filter0_d_80_1409" x="104.63" y="138.599" width="35.8341" height="22.8341" filterUnits="userSpaceOnUse" color-interpolation-filters="sRGB">
<feFlood flood-opacity="0" result="BackgroundImageFix"/>
<feColorMatrix in="SourceAlpha" type="matrix" values="0 0 0 0 0 0 0 0 0 0 0 0 0 0 0 0 0 0 127 0" result="hardAlpha"/>
<feOffset/>
<feGaussianBlur stdDeviation="2.70852"/>
<feComposite in2="hardAlpha" operator="out"/>
<feColorMatrix type="matrix" values="0 0 0 0 0.180392 0 0 0 0 1 0 0 0 0 0.74902 0 0 0 1 0"/>
<feBlend mode="normal" in2="BackgroundImageFix" result="effect1_dropShadow_80_1409"/>
<feBlend mode="normal" in="SourceGraphic" in2="effect1_dropShadow_80_1409" result="shape"/>
</filter>
<filter id="filter1_d_80_1409" x="0.629835" y="23.9754" width="23.0226" height="35.8879" filterUnits="userSpaceOnUse" color-interpolation-filters="sRGB">
<feFlood flood-opacity="0" result="BackgroundImageFix"/>
<feColorMatrix in="SourceAlpha" type="matrix" values="0 0 0 0 0 0 0 0 0 0 0 0 0 0 0 0 0 0 127 0" result="hardAlpha"/>
<feOffset/>
<feGaussianBlur stdDeviation="2.70852"/>
<feComposite in2="hardAlpha" operator="out"/>
<feColorMatrix type="matrix" values="0 0 0 0 0.180392 0 0 0 0 1 0 0 0 0 0.74902 0 0 0 1 0"/>
<feBlend mode="normal" in2="BackgroundImageFix" result="effect1_dropShadow_80_1409"/>
<feBlend mode="normal" in="SourceGraphic" in2="effect1_dropShadow_80_1409" result="shape"/>
</filter>
<filter id="filter2_d_80_1409" x="86.6298" y="138.599" width="34.8341" height="22.8341" filterUnits="userSpaceOnUse" color-interpolation-filters="sRGB">
<feFlood flood-opacity="0" result="BackgroundImageFix"/>
<feColorMatrix in="SourceAlpha" type="matrix" values="0 0 0 0 0 0 0 0 0 0 0 0 0 0 0 0 0 0 127 0" result="hardAlpha"/>
<feOffset/>
<feGaussianBlur stdDeviation="2.70852"/>
<feComposite in2="hardAlpha" operator="out"/>
<feColorMatrix type="matrix" values="0 0 0 0 0.180392 0 0 0 0 1 0 0 0 0 0.74902 0 0 0 1 0"/>
<feBlend mode="normal" in2="BackgroundImageFix" result="effect1_dropShadow_80_1409"/>
<feBlend mode="normal" in="SourceGraphic" in2="effect1_dropShadow_80_1409" result="shape"/>
</filter>
<filter id="filter3_d_80_1409" x="0.629835" y="42.9354" width="23.0226" height="35.8879" filterUnits="userSpaceOnUse" color-interpolation-filters="sRGB">
<feFlood flood-opacity="0" result="BackgroundImageFix"/>
<feColorMatrix in="SourceAlpha" type="matrix" values="0 0 0 0 0 0 0 0 0 0 0 0 0 0 0 0 0 0 127 0" result="hardAlpha"/>
<feOffset/>
<feGaussianBlur stdDeviation="2.70852"/>
<feComposite in2="hardAlpha" operator="out"/>
<feColorMatrix type="matrix" values="0 0 0 0 0.180392 0 0 0 0 1 0 0 0 0 0.74902 0 0 0 1 0"/>
<feBlend mode="normal" in2="BackgroundImageFix" result="effect1_dropShadow_80_1409"/>
<feBlend mode="normal" in="SourceGraphic" in2="effect1_dropShadow_80_1409" result="shape"/>
</filter>
<filter id="filter4_d_80_1409" x="67.6298" y="138.599" width="35.8341" height="22.8341" filterUnits="userSpaceOnUse" color-interpolation-filters="sRGB">
<feFlood flood-opacity="0" result="BackgroundImageFix"/>
<feColorMatrix in="SourceAlpha" type="matrix" values="0 0 0 0 0 0 0 0 0 0 0 0 0 0 0 0 0 0 127 0" result="hardAlpha"/>
<feOffset/>
<feGaussianBlur stdDeviation="2.70852"/>
<feComposite in2="hardAlpha" operator="out"/>
<feColorMatrix type="matrix" values="0 0 0 0 0.180392 0 0 0 0 1 0 0 0 0 0.74902 0 0 0 1 0"/>
<feBlend mode="normal" in2="BackgroundImageFix" result="effect1_dropShadow_80_1409"/>
<feBlend mode="normal" in="SourceGraphic" in2="effect1_dropShadow_80_1409" result="shape"/>
</filter>
<filter id="filter5_d_80_1409" x="0.629835" y="61.8944" width="23.0226" height="35.8879" filterUnits="userSpaceOnUse" color-interpolation-filters="sRGB">
<feFlood flood-opacity="0" result="BackgroundImageFix"/>
<feColorMatrix in="SourceAlpha" type="matrix" values="0 0 0 0 0 0 0 0 0 0 0 0 0 0 0 0 0 0 127 0" result="hardAlpha"/>
<feOffset/>
<feGaussianBlur stdDeviation="2.70852"/>
<feComposite in2="hardAlpha" operator="out"/>
<feColorMatrix type="matrix" values="0 0 0 0 0.180392 0 0 0 0 1 0 0 0 0 0.74902 0 0 0 1 0"/>
<feBlend mode="normal" in2="BackgroundImageFix" result="effect1_dropShadow_80_1409"/>
<feBlend mode="normal" in="SourceGraphic" in2="effect1_dropShadow_80_1409" result="shape"/>
</filter>
<filter id="filter6_d_80_1409" x="9.62983" y="97.5986" width="55.8341" height="53.8341" filterUnits="userSpaceOnUse" color-interpolation-filters="sRGB">
<feFlood flood-opacity="0" result="BackgroundImageFix"/>
<feColorMatrix in="SourceAlpha" type="matrix" values="0 0 0 0 0 0 0 0 0 0 0 0 0 0 0 0 0 0 127 0" result="hardAlpha"/>
<feOffset/>
<feGaussianBlur stdDeviation="2.70852"/>
<feComposite in2="hardAlpha" operator="out"/>
<feColorMatrix type="matrix" values="0 0 0 0 0.180392 0 0 0 0 1 0 0 0 0 0.74902 0 0 0 1 0"/>
<feBlend mode="normal" in2="BackgroundImageFix" result="effect1_dropShadow_80_1409"/>
<feBlend mode="normal" in="SourceGraphic" in2="effect1_dropShadow_80_1409" result="shape"/>
</filter>
</defs>
</svg>
